# xmcd
#
# Track frame offsets: 
#        150
#        12724
#        25564
#        47224
#        68294
#        89263
#        104075
#        126228
#        148158
#        179977
#        211495
#        242806
#        273656
#        287766
#
# Disc length: 4170 seconds
#
# Revision: 6
# Processed by: cddbd v1.5.2PL0 Copyright (c) Steve Scherf et al.
# Submitted via: ExactAudioCopyFreeDBPlugin 1.0
#
DISCID=dd10480e
DTITLE=Stéphane Pompougnac  - Hotel Costes 1999-2009 A Decade Disc 2 -
DTITLE=Bonus Mix
DYEAR=2009
DGENRE=Electronica Lounge
TTITLE0=Freedom Dub - Emotional Rescue (2 Many Beats Remix)
TTITLE1=Trinity FM   - S.O.S. (The Sound Of Silence)
TTITLE2=S-Tone Inc  - Con Mi Sombra
TTITLE3=Parov Stelar - Kiss Kiss
TTITLE4=Major Boys  feat Aurelia   - Sous Le Soleil (Radio Mix)
TTITLE5=Club Des Belugas   - Hip Hip Chin Chin (Yaziko Club Mix)
TTITLE6=Dublex Inc  - Tócame
TTITLE7=Louie Austen   - Glamour Girl
TTITLE8=Hello Mademoiselle (Balazko Remix)
TTITLE9=Charles Schillings and Pompom F   - No Communication, No Love (S
TTITLE9=treet Corner Symphony Mix)
TTITLE10=Mr V   - Jus' Dance (Sole Channel Mix)
TTITLE11=Slowsupreme   - Granada
TTITLE12=Variety Lab  feat Kidsaredead   - Soda Pop Confusion
TTITLE13=Stéphane Pompougnac  feat Clémentine - Morenito (Original Mix
TTITLE13=)
EXTD=YEAR: 2009
EXTT0=
EXTT1=
EXTT2=
EXTT3=
EXTT4=
EXTT5=
EXTT6=
EXTT7=
EXTT8=
EXTT9=
EXTT10=
EXTT11=
EXTT12=
EXTT13=
PLAYORDER=
